<svg width="126" height="21" viewBox="0 0 126 21" fill="none" xmlns="http://www.w3.org/2000/svg">
<path d="M9.58278 1.5647C4.28827 1.56265 0 5.66831 0 10.7358C0 14.743 2.68258 18.1494 6.4185 19.4003C6.92161 19.5213 6.84454 19.1789 6.84454 18.9451V17.3557C3.9393 17.6818 3.82155 15.8402 3.62673 15.5326C3.2328 14.8886 2.3015 14.7246 2.57982 14.4169C3.24136 14.0909 3.91575 14.499 4.69719 15.6043C5.2624 16.4062 6.36497 16.2709 6.92375 16.1376C7.04579 15.6556 7.30698 15.225 7.66666 14.8907C4.65651 14.3739 3.40193 12.6143 3.40193 10.5225C3.40193 9.50737 3.7509 8.57427 4.436 7.82163C3.99925 6.58091 4.47668 5.5186 4.5409 5.36069C5.78478 5.25405 7.0779 6.21382 7.17852 6.2897C7.88503 6.10718 8.69216 6.01079 9.59563 6.01079C10.5034 6.01079 11.3127 6.11128 12.0256 6.29585C12.2675 6.11948 13.4664 5.29507 14.6225 5.39556C14.6846 5.55347 15.1513 6.59116 14.7403 7.81548C15.4339 8.57017 15.7872 9.51148 15.7872 10.5287C15.7872 12.6246 14.524 14.3862 11.5053 14.8948C11.7639 15.1383 11.9692 15.4288 12.1092 15.7492C12.2493 16.0697 12.3213 16.4136 12.321 16.761V19.0681C12.3382 19.2527 12.321 19.4352 12.6422 19.4352C16.4337 18.2109 19.1634 14.7799 19.1634 10.7378C19.1634 5.66831 14.873 1.5647 9.58278 1.5647Z" fill="white"/>
<path d="M26.929 12.3203H28.6516C28.7063 12.7624 28.9364 13.1156 29.342 13.3799C29.7476 13.6396 30.2626 13.7695 30.887 13.7695C31.4703 13.7695 31.9488 13.6374 32.3225 13.373C32.7008 13.1042 32.8899 12.7624 32.8899 12.3477C32.8899 11.9922 32.7463 11.7028 32.4592 11.4795C32.1767 11.2562 31.7187 11.0716 31.0852 10.9258L29.8069 10.6318C28.9137 10.4313 28.2506 10.1055 27.8176 9.6543C27.3892 9.19857 27.175 8.60384 27.175 7.87012C27.175 6.97233 27.51 6.25228 28.1799 5.70996C28.8544 5.16309 29.7431 4.88965 30.8459 4.88965C31.8805 4.88965 32.7372 5.15853 33.4163 5.69629C34.0953 6.23405 34.4553 6.92676 34.4963 7.77441H32.8079C32.7486 7.34147 32.5413 6.9974 32.1858 6.74219C31.8303 6.48698 31.3814 6.35937 30.8391 6.35937C30.2695 6.35937 29.8114 6.48698 29.4651 6.74219C29.1233 6.99284 28.9524 7.3278 28.9524 7.74707C28.9524 8.07975 29.0868 8.35091 29.3557 8.56055C29.6246 8.76562 30.0644 8.9388 30.675 9.08008L31.8098 9.33984C32.8079 9.56315 33.5302 9.89583 33.9768 10.3379C34.428 10.7799 34.6536 11.377 34.6536 12.1289C34.6536 13.0905 34.3049 13.8516 33.6077 14.4121C32.915 14.9681 31.9716 15.2461 30.7776 15.2461C29.6474 15.2461 28.7336 14.9818 28.0364 14.4531C27.3437 13.9245 26.9745 13.2135 26.929 12.3203ZM39.5959 8.71777C39.0901 8.71777 38.6731 8.88411 38.345 9.2168C38.0168 9.54948 37.8346 9.98926 37.7981 10.5361H41.3186C41.3004 9.98014 41.1363 9.53809 40.8264 9.20996C40.5165 8.88184 40.1064 8.71777 39.5959 8.71777ZM41.3323 12.9424H42.9387C42.7792 13.626 42.4032 14.166 41.8108 14.5625C41.2229 14.9544 40.4915 15.1504 39.6165 15.1504C38.5181 15.1504 37.6545 14.8086 37.0256 14.125C36.4013 13.4368 36.0891 12.4912 36.0891 11.2881C36.0891 10.085 36.4036 9.13249 37.0325 8.43066C37.6614 7.72428 38.5181 7.37109 39.6028 7.37109C40.6692 7.37109 41.5032 7.70605 42.1047 8.37598C42.7109 9.04134 43.0139 9.96419 43.0139 11.1445V11.6914H37.7913V11.7803C37.814 12.4046 37.9918 12.8991 38.3245 13.2637C38.6617 13.6237 39.1083 13.8037 39.6643 13.8037C40.5211 13.8037 41.0771 13.5166 41.3323 12.9424ZM47.8538 8.71777C47.3479 8.71777 46.9309 8.88411 46.6028 9.2168C46.2747 9.54948 46.0924 9.98926 46.0559 10.5361H49.5764C49.5582 9.98014 49.3941 9.53809 49.0842 9.20996C48.7743 8.88184 48.3642 8.71777 47.8538 8.71777ZM49.5901 12.9424H51.1965C51.037 13.626 50.6611 14.166 50.0686 14.5625C49.4807 14.9544 48.7493 15.1504 47.8743 15.1504C46.776 15.1504 45.9124 14.8086 45.2834 14.125C44.6591 13.4368 44.3469 12.4912 44.3469 11.2881C44.3469 10.085 44.6614 9.13249 45.2903 8.43066C45.9192 7.72428 46.776 7.37109 47.8606 7.37109C48.927 7.37109 49.761 7.70605 50.3626 8.37598C50.9687 9.04134 51.2717 9.96419 51.2717 11.1445V11.6914H46.0491V11.7803C46.0719 12.4046 46.2496 12.8991 46.5823 13.2637C46.9195 13.6237 47.3661 13.8037 47.9221 13.8037C48.7789 13.8037 49.3349 13.5166 49.5901 12.9424ZM58.5588 13.0859C58.8824 13.5143 59.3404 13.7285 59.9329 13.7285C60.5253 13.7285 60.981 13.5143 61.3001 13.0859C61.6236 12.653 61.7854 12.0446 61.7854 11.2607C61.7854 10.4814 61.6236 9.87533 61.3001 9.44238C60.9765 9.00944 60.5208 8.79297 59.9329 8.79297C59.3404 8.79297 58.8824 9.00944 58.5588 9.44238C58.2353 9.87533 58.0735 10.4814 58.0735 11.2607C58.0735 12.0446 58.2353 12.653 58.5588 13.0859ZM59.9329 15.1504C58.8118 15.1504 57.9322 14.8063 57.2942 14.1182C56.6562 13.4255 56.3372 12.473 56.3372 11.2607C56.3372 10.0576 56.6585 9.1097 57.301 8.41699C57.9436 7.71973 58.8209 7.37109 59.9329 7.37109C61.0494 7.37109 61.9267 7.71745 62.5647 8.41016C63.2073 9.10286 63.5286 10.0531 63.5286 11.2607C63.5286 12.473 63.2073 13.4255 62.5647 14.1182C61.9267 14.8063 61.0494 15.1504 59.9329 15.1504ZM65.2376 15V7.52148H66.8713V8.71777H66.9876C67.1698 8.28939 67.4478 7.95898 67.8215 7.72656C68.1998 7.48958 68.6624 7.37109 69.2092 7.37109C70.0387 7.37109 70.6744 7.61263 71.1165 8.0957C71.5631 8.57878 71.7864 9.26693 71.7864 10.1602V15H70.0911V10.5635C70.0911 9.4196 69.5875 8.84766 68.5803 8.84766C68.0745 8.84766 67.6734 9.00944 67.3772 9.33301C67.081 9.65658 66.9329 10.0941 66.9329 10.6455V15H65.2376ZM86.2376 11.0488C86.2376 12.3294 85.8479 13.3503 85.0686 14.1113C84.2893 14.8678 83.2411 15.2461 81.9241 15.2461C80.4931 15.2461 79.3629 14.7835 78.5335 13.8584C77.704 12.9287 77.2893 11.6641 77.2893 10.0645C77.2893 8.48763 77.7063 7.2321 78.5403 6.29785C79.3743 5.35905 80.4931 4.88965 81.8967 4.88965C83.0361 4.88965 83.9908 5.19043 84.761 5.79199C85.5312 6.39355 85.996 7.19792 86.1555 8.20508H84.3987C84.221 7.64453 83.9156 7.21387 83.4827 6.91309C83.0543 6.6123 82.5256 6.46191 81.8967 6.46191C81.0354 6.46191 80.3518 6.7832 79.846 7.42578C79.3446 8.06836 79.094 8.94336 79.094 10.0508C79.094 11.1719 79.3492 12.056 79.8596 12.7031C80.3746 13.3503 81.0719 13.6738 81.9514 13.6738C82.7034 13.6738 83.3141 13.4642 83.7835 13.0449C84.2529 12.6257 84.4944 12.0765 84.5081 11.3975L84.5149 11.1924H82.1428V9.81152H86.2376V11.0488ZM88.1311 15V7.52148H89.8196V15H88.1311ZM88.9719 6.30469C88.6666 6.30469 88.4159 6.2181 88.22 6.04492C88.024 5.86719 87.926 5.6416 87.926 5.36816C87.926 5.09473 88.024 4.87142 88.22 4.69824C88.4159 4.52051 88.6666 4.43164 88.9719 4.43164C89.2818 4.43164 89.5325 4.52051 89.7239 4.69824C89.9198 4.87142 90.0178 5.09473 90.0178 5.36816C90.0178 5.6416 89.9198 5.86719 89.7239 6.04492C89.5325 6.2181 89.2818 6.30469 88.9719 6.30469ZM92.4651 5.68945H94.1536V7.56934H95.7532V8.92285H94.1536V12.5937C94.1536 12.9629 94.2356 13.234 94.3997 13.4072C94.5637 13.5758 94.8235 13.6602 95.179 13.6602C95.3339 13.6602 95.5253 13.6488 95.7532 13.626V14.9521C95.4706 15.0068 95.1744 15.0342 94.8645 15.0342C94.0077 15.0342 93.3925 14.877 93.0188 14.5625C92.6497 14.248 92.4651 13.7285 92.4651 13.0039V8.92285H91.2825V7.56934H92.4651V5.68945ZM97.5169 15V4.62988H99.1848V8.73144H99.3079C99.4856 8.30762 99.7704 7.97721 100.162 7.74023C100.554 7.50325 101.026 7.38477 101.577 7.38477C102.384 7.38477 103.013 7.62858 103.464 8.11621C103.92 8.60384 104.148 9.28971 104.148 10.1738V15H102.452V10.5771C102.452 10.012 102.325 9.58594 102.07 9.29883C101.814 9.00716 101.441 8.86133 100.948 8.86133C100.402 8.86133 99.9755 9.02539 99.6702 9.35352C99.3648 9.67708 99.2122 10.1123 99.2122 10.6592V15H97.5169ZM112.665 7.52148V15H111.032V13.8105H110.915C110.537 14.7038 109.792 15.1504 108.68 15.1504C107.864 15.1504 107.228 14.9089 106.773 14.4258C106.317 13.9382 106.089 13.2568 106.089 12.3818V7.52148H107.784V11.958C107.784 12.5322 107.905 12.9606 108.147 13.2432C108.388 13.5212 108.762 13.6602 109.268 13.6602C109.815 13.6602 110.234 13.5029 110.526 13.1885C110.822 12.874 110.97 12.4365 110.97 11.876V7.52148H112.665ZM118.9 15.123C118.376 15.123 117.908 15.0091 117.498 14.7812C117.088 14.5488 116.776 14.2275 116.562 13.8174H116.446V15H114.812V4.62988H116.507V8.71094H116.623C116.819 8.30534 117.12 7.98633 117.526 7.75391C117.931 7.51693 118.389 7.39844 118.9 7.39844C119.848 7.39844 120.595 7.74479 121.142 8.4375C121.693 9.12565 121.969 10.0667 121.969 11.2607C121.969 12.4502 121.693 13.3913 121.142 14.084C120.59 14.7767 119.843 15.123 118.9 15.123ZM119.727 9.49023C119.399 9.05729 118.945 8.84082 118.366 8.84082C117.788 8.84082 117.327 9.05957 116.986 9.49707C116.648 9.93001 116.48 10.5179 116.48 11.2607C116.48 12.0081 116.648 12.5983 116.986 13.0312C117.327 13.4642 117.788 13.6807 118.366 13.6807C118.945 13.6807 119.399 13.4665 119.727 13.0381C120.059 12.6051 120.226 12.0127 120.226 11.2607C120.226 10.5088 120.059 9.91862 119.727 9.49023Z" fill="white"/>
</svg>
