<svg width="151" height="21" viewBox="0 0 151 21" fill="none" xmlns="http://www.w3.org/2000/svg">
<g clip-path="url(#clip0)">
<g clip-path="url(#clip1)">
<path d="M10.7784 11.025C10.7784 11.6045 10.367 12.0795 9.84586 12.0795C9.33386 12.0795 8.91329 11.6045 8.91329 11.025C8.91329 10.4455 9.32472 9.9705 9.84586 9.9705C10.367 9.9705 10.7784 10.4455 10.7784 11.025ZM6.50872 9.9705C5.98757 9.9705 5.57615 10.4455 5.57615 11.025C5.57615 11.6045 5.99672 12.0795 6.50872 12.0795C7.02986 12.0795 7.44129 11.6045 7.44129 11.025C7.45043 10.4455 7.02986 9.9705 6.50872 9.9705ZM16.1636 3.957V21C13.8602 18.885 14.5969 19.5851 11.9213 17.0005L12.4059 18.758H2.03786C1.00472 18.758 0.163574 17.884 0.163574 16.801V3.957C0.163574 2.874 1.00472 2 2.03786 2H14.2893C15.3224 2 16.1636 2.874 16.1636 3.957ZM13.5579 12.963C13.5579 9.904 12.2413 7.4245 12.2413 7.4245C10.9247 6.3985 9.67215 6.427 9.67215 6.427L9.54415 6.579C11.0984 7.073 11.8207 7.7855 11.8207 7.7855C9.6489 6.54868 7.09772 6.54846 4.991 7.51C4.65272 7.6715 4.45157 7.7855 4.45157 7.7855C4.45157 7.7855 5.21043 7.035 6.85615 6.541L6.76472 6.427C6.76472 6.427 5.51215 6.3985 4.19557 7.4245C4.19557 7.4245 2.879 9.904 2.879 12.963C2.879 12.963 3.647 14.3405 5.66757 14.407C5.66757 14.407 6.00586 13.9795 6.28015 13.6185C5.119 13.2575 4.68015 12.4975 4.68015 12.4975C4.81465 12.5953 5.03643 12.7221 5.055 12.735C6.59822 13.633 8.79029 13.9272 10.7601 13.0675C11.0801 12.944 11.4367 12.7635 11.8116 12.507C11.8116 12.507 11.3544 13.286 10.1567 13.6375C10.431 13.9985 10.7601 14.407 10.7601 14.407C12.7807 14.3405 13.5579 12.963 13.5579 12.963Z" fill="white"/>
</g>
<path d="M23.7036 12.3135C23.7036 14.0977 24.9751 15.2461 26.8618 15.2461C28.8442 15.2461 30.0405 14.084 30.0405 12.0537V5.13574H28.2769V12.04C28.2769 13.0996 27.7642 13.6602 26.8413 13.6602C26.0005 13.6602 25.4399 13.127 25.4263 12.3135H23.7036ZM35.4136 13.7285C34.231 13.7285 33.5542 12.8262 33.5542 11.2607C33.5542 9.70215 34.231 8.79297 35.4136 8.79297C36.5894 8.79297 37.2661 9.70215 37.2661 11.2607C37.2661 12.8262 36.5962 13.7285 35.4136 13.7285ZM35.4136 15.1504C37.6489 15.1504 39.0093 13.6875 39.0093 11.2607C39.0093 8.84082 37.6421 7.37109 35.4136 7.37109C33.1919 7.37109 31.8179 8.84766 31.8179 11.2607C31.8179 13.6875 33.1714 15.1504 35.4136 15.1504ZM40.7388 15H42.4272V7.52148H40.7388V15ZM41.5796 6.30469C42.2017 6.30469 42.6255 5.9082 42.6255 5.36816C42.6255 4.82812 42.2017 4.43164 41.5796 4.43164C40.9644 4.43164 40.5337 4.82812 40.5337 5.36816C40.5337 5.9082 40.9644 6.30469 41.5796 6.30469ZM44.5327 15H46.228V10.6455C46.228 9.54492 46.8638 8.84766 47.8755 8.84766C48.9077 8.84766 49.3862 9.42187 49.3862 10.5635V15H51.0815V10.1602C51.0815 8.37598 50.1724 7.37109 48.5044 7.37109C47.3901 7.37109 46.6382 7.88379 46.2827 8.71777H46.1665V7.52148H44.5327V15ZM63.3315 7.52148H61.6362V11.876C61.6362 12.9834 61.0347 13.6602 59.9341 13.6602C58.9224 13.6602 58.4507 13.0996 58.4507 11.958V7.52148H56.7554V12.3818C56.7554 14.1318 57.7124 15.1504 59.3462 15.1504C60.4878 15.1504 61.2192 14.665 61.5815 13.8105H61.6978V15H63.3315V7.52148ZM65.2388 9.66113C65.2388 10.7891 65.9155 11.4521 67.3511 11.7803L68.6773 12.0879C69.3882 12.2451 69.7095 12.5117 69.7095 12.9355C69.7095 13.4893 69.1148 13.8652 68.2603 13.8652C67.4126 13.8652 66.8862 13.5371 66.7222 12.9834H65.0474C65.1772 14.3437 66.353 15.1504 68.2192 15.1504C70.0855 15.1504 71.4048 14.1934 71.4048 12.7578C71.4048 11.6572 70.7417 11.042 69.313 10.7207L67.9937 10.4199C67.2417 10.249 66.8862 9.98926 66.8862 9.56543C66.8862 9.02539 67.4673 8.65625 68.2398 8.65625C69.0327 8.65625 69.5317 8.99121 69.6548 9.51758H71.2476C71.1245 8.15723 70.0103 7.37109 68.2329 7.37109C66.4692 7.37109 65.2388 8.30762 65.2388 9.66113ZM80.0796 13.7285C78.897 13.7285 78.2202 12.8262 78.2202 11.2607C78.2202 9.70215 78.897 8.79297 80.0796 8.79297C81.2554 8.79297 81.9321 9.70215 81.9321 11.2607C81.9321 12.8262 81.2622 13.7285 80.0796 13.7285ZM80.0796 15.1504C82.3149 15.1504 83.6753 13.6875 83.6753 11.2607C83.6753 8.84082 82.3081 7.37109 80.0796 7.37109C77.8579 7.37109 76.4839 8.84766 76.4839 11.2607C76.4839 13.6875 77.8374 15.1504 80.0796 15.1504ZM85.3843 15H87.0796V10.6455C87.0796 9.54492 87.7153 8.84766 88.7271 8.84766C89.7593 8.84766 90.2378 9.42187 90.2378 10.5635V15H91.9331V10.1602C91.9331 8.37598 91.0239 7.37109 89.356 7.37109C88.2417 7.37109 87.4898 7.88379 87.1343 8.71777H87.0181V7.52148H85.3843V15ZM97.853 5.13574V15H101.551C104.504 15 106.193 13.1885 106.193 10.0234C106.193 6.92676 104.484 5.13574 101.551 5.13574H97.853ZM99.6167 6.66016H101.319C103.253 6.66016 104.395 7.89746 104.395 10.0508C104.395 12.252 103.281 13.4756 101.319 13.4756H99.6167V6.66016ZM108.045 15H109.734V7.52148H108.045V15ZM108.886 6.30469C109.508 6.30469 109.932 5.9082 109.932 5.36816C109.932 4.82812 109.508 4.43164 108.886 4.43164C108.271 4.43164 107.84 4.82812 107.84 5.36816C107.84 5.9082 108.271 6.30469 108.886 6.30469ZM111.668 9.66113C111.668 10.7891 112.345 11.4521 113.781 11.7803L115.107 12.0879C115.818 12.2451 116.139 12.5117 116.139 12.9355C116.139 13.4893 115.544 13.8652 114.69 13.8652C113.842 13.8652 113.316 13.5371 113.152 12.9834H111.477C111.607 14.3437 112.783 15.1504 114.649 15.1504C116.515 15.1504 117.834 14.1934 117.834 12.7578C117.834 11.6572 117.171 11.042 115.743 10.7207L114.423 10.4199C113.671 10.249 113.316 9.98926 113.316 9.56543C113.316 9.02539 113.897 8.65625 114.669 8.65625C115.462 8.65625 115.961 8.99121 116.084 9.51758H117.677C117.554 8.15723 116.44 7.37109 114.663 7.37109C112.899 7.37109 111.668 8.30762 111.668 9.66113ZM126.01 10.0371C125.833 8.46484 124.67 7.37109 122.75 7.37109C120.5 7.37109 119.181 8.81348 119.181 11.2402C119.181 13.7012 120.507 15.1504 122.756 15.1504C124.65 15.1504 125.826 14.0977 126.01 12.5322H124.397C124.219 13.3115 123.631 13.7285 122.75 13.7285C121.594 13.7285 120.897 12.8125 120.897 11.2402C120.897 9.68848 121.587 8.79297 122.75 8.79297C123.679 8.79297 124.24 9.3125 124.397 10.0371H126.01ZM130.857 13.7285C129.674 13.7285 128.998 12.8262 128.998 11.2607C128.998 9.70215 129.674 8.79297 130.857 8.79297C132.033 8.79297 132.709 9.70215 132.709 11.2607C132.709 12.8262 132.04 13.7285 130.857 13.7285ZM130.857 15.1504C133.092 15.1504 134.453 13.6875 134.453 11.2607C134.453 8.84082 133.085 7.37109 130.857 7.37109C128.635 7.37109 127.261 8.84766 127.261 11.2607C127.261 13.6875 128.615 15.1504 130.857 15.1504ZM136.162 15H137.857V10.6797C137.857 9.63379 138.623 8.95019 139.723 8.95019C140.01 8.95019 140.461 8.99805 140.591 9.0459V7.47363C140.434 7.42578 140.133 7.39844 139.887 7.39844C138.923 7.39844 138.117 7.94531 137.912 8.68359H137.795V7.52148H136.162V15ZM144.501 15.123C145.541 15.123 146.402 14.6377 146.826 13.8174H146.942V15H148.583V4.62988H146.887V8.71094H146.771C146.375 7.89062 145.527 7.39844 144.501 7.39844C142.615 7.39844 141.425 8.88867 141.425 11.2539C141.425 13.6328 142.608 15.123 144.501 15.123ZM145.028 8.84082C146.19 8.84082 146.908 9.77051 146.908 11.2607C146.908 12.7646 146.197 13.6807 145.028 13.6807C143.866 13.6807 143.162 12.7715 143.162 11.2607C143.162 9.75684 143.873 8.84082 145.028 8.84082Z" fill="white"/>
</g>
<defs>
<clipPath id="clip0">
<rect width="150" height="21" fill="white" transform="translate(0.163574)"/>
</clipPath>
<clipPath id="clip1">
<rect width="16" height="19" fill="white" transform="translate(0.163574 2)"/>
</clipPath>
</defs>
</svg>
