<svg width="163" height="21" viewBox="0 0 163 21" fill="none" xmlns="http://www.w3.org/2000/svg">
<g clip-path="url(#clip0)">
<path d="M9.58278 1.56476C4.28827 1.56271 0 5.66837 0 10.7359C0 14.7431 2.68258 18.1494 6.4185 19.4004C6.92161 19.5214 6.84454 19.1789 6.84454 18.9451V17.3558C3.9393 17.6819 3.82155 15.8402 3.62673 15.5326C3.2328 14.8887 2.3015 14.7246 2.57982 14.417C3.24136 14.0909 3.91575 14.499 4.69719 15.6044C5.2624 16.4063 6.36497 16.2709 6.92375 16.1376C7.04579 15.6557 7.30698 15.225 7.66666 14.8907C4.65651 14.3739 3.40193 12.6144 3.40193 10.5226C3.40193 9.50744 3.7509 8.57433 4.436 7.82169C3.99925 6.58097 4.47668 5.51867 4.5409 5.36076C5.78478 5.25411 7.0779 6.21388 7.17852 6.28976C7.88503 6.10724 8.69216 6.01085 9.59563 6.01085C10.5034 6.01085 11.3127 6.11134 12.0256 6.29591C12.2675 6.11954 13.4664 5.29513 14.6225 5.39562C14.6846 5.55353 15.1513 6.59122 14.7403 7.81554C15.4339 8.57023 15.7872 9.51154 15.7872 10.5287C15.7872 12.6246 14.524 14.3862 11.5053 14.8948C11.7639 15.1384 11.9692 15.4289 12.1092 15.7493C12.2493 16.0697 12.3213 16.4137 12.321 16.761V19.0682C12.3382 19.2527 12.321 19.4353 12.6422 19.4353C16.4337 18.211 19.1634 14.78 19.1634 10.7379C19.1634 5.66837 14.873 1.56476 9.58278 1.56476Z" fill="white"/>
<path d="M26.9292 12.3203C27.0181 14.1113 28.5151 15.2461 30.7778 15.2461C33.1704 15.2461 34.6538 14.0498 34.6538 12.1289C34.6538 10.625 33.813 9.79102 31.8101 9.33984L30.6753 9.08008C29.4517 8.7998 28.9526 8.41016 28.9526 7.74707C28.9526 6.90625 29.7046 6.35937 30.8394 6.35937C31.9194 6.35937 32.6851 6.90625 32.8081 7.77441H34.4966C34.4146 6.0791 32.9175 4.88965 30.8462 4.88965C28.6382 4.88965 27.1753 6.0791 27.1753 7.87012C27.1753 9.33984 28.0161 10.2285 29.8071 10.6318L31.0854 10.9258C32.3501 11.2197 32.8901 11.6367 32.8901 12.3477C32.8901 13.1748 32.0493 13.7695 30.8872 13.7695C29.6362 13.7695 28.7612 13.2021 28.6519 12.3203H26.9292ZM39.5962 8.71777C40.6147 8.71777 41.2847 9.42871 41.3188 10.5361H37.7983C37.8735 9.44238 38.5845 8.71777 39.5962 8.71777ZM41.3325 12.9424C41.0864 13.4961 40.5054 13.8037 39.6646 13.8037C38.5503 13.8037 37.8325 13.0244 37.7915 11.7803V11.6914H43.0142V11.1445C43.0142 8.78613 41.7358 7.37109 39.603 7.37109C37.436 7.37109 36.0894 8.88184 36.0894 11.2881C36.0894 13.6943 37.4155 15.1504 39.6167 15.1504C41.3804 15.1504 42.6177 14.3027 42.939 12.9424H41.3325ZM47.854 8.71777C48.8726 8.71777 49.5425 9.42871 49.5767 10.5361H46.0562C46.1313 9.44238 46.8423 8.71777 47.854 8.71777ZM49.5903 12.9424C49.3442 13.4961 48.7632 13.8037 47.9224 13.8037C46.8081 13.8037 46.0903 13.0244 46.0493 11.7803V11.6914H51.272V11.1445C51.272 8.78613 49.9937 7.37109 47.8608 7.37109C45.6938 7.37109 44.3472 8.88184 44.3472 11.2881C44.3472 13.6943 45.6733 15.1504 47.8745 15.1504C49.6382 15.1504 50.8755 14.3027 51.1968 12.9424H49.5903ZM56.7065 15H58.4019V10.4541C58.4019 9.53809 59.0239 8.84766 59.8648 8.84766C60.6987 8.84766 61.2183 9.34668 61.2183 10.167V15H62.8657V10.3447C62.8657 9.49023 63.4468 8.84766 64.3286 8.84766C65.2378 8.84766 65.6958 9.32617 65.6958 10.29V15H67.3843V9.85937C67.3843 8.30762 66.4819 7.37109 64.9849 7.37109C63.9458 7.37109 63.0845 7.91113 62.7153 8.73144H62.5991C62.2847 7.89062 61.5669 7.37109 60.5347 7.37109C59.5435 7.37109 58.7778 7.87695 58.4565 8.73144H58.3403V7.52148H56.7065V15ZM72.6206 13.7285C71.438 13.7285 70.7612 12.8262 70.7612 11.2607C70.7612 9.70215 71.438 8.79297 72.6206 8.79297C73.7964 8.79297 74.4731 9.70215 74.4731 11.2607C74.4731 12.8262 73.8032 13.7285 72.6206 13.7285ZM72.6206 15.1504C74.856 15.1504 76.2163 13.6875 76.2163 11.2607C76.2163 8.84082 74.8491 7.37109 72.6206 7.37109C70.3989 7.37109 69.0249 8.84766 69.0249 11.2607C69.0249 13.6875 70.3784 15.1504 72.6206 15.1504ZM77.9253 15H79.6206V10.6797C79.6206 9.63379 80.3862 8.95019 81.4868 8.95019C81.7739 8.95019 82.2251 8.99805 82.355 9.0459V7.47363C82.1978 7.42578 81.897 7.39844 81.6509 7.39844C80.687 7.39844 79.8804 7.94531 79.6753 8.68359H79.5591V7.52148H77.9253V15ZM86.6958 8.71777C87.7144 8.71777 88.3843 9.42871 88.4185 10.5361H84.898C84.9731 9.44238 85.6841 8.71777 86.6958 8.71777ZM88.4321 12.9424C88.186 13.4961 87.605 13.8037 86.7642 13.8037C85.6499 13.8037 84.9321 13.0244 84.8911 11.7803V11.6914H90.1138V11.1445C90.1138 8.78613 88.8355 7.37109 86.7026 7.37109C84.5356 7.37109 83.189 8.88184 83.189 11.2881C83.189 13.6943 84.5151 15.1504 86.7163 15.1504C88.48 15.1504 89.7173 14.3027 90.0386 12.9424H88.4321ZM98.7749 13.7285C97.5923 13.7285 96.9155 12.8262 96.9155 11.2607C96.9155 9.70215 97.5923 8.79297 98.7749 8.79297C99.9507 8.79297 100.627 9.70215 100.627 11.2607C100.627 12.8262 99.9575 13.7285 98.7749 13.7285ZM98.7749 15.1504C101.01 15.1504 102.371 13.6875 102.371 11.2607C102.371 8.84082 101.003 7.37109 98.7749 7.37109C96.5532 7.37109 95.1792 8.84766 95.1792 11.2607C95.1792 13.6875 96.5327 15.1504 98.7749 15.1504ZM104.08 15H105.775V10.6455C105.775 9.54492 106.411 8.84766 107.422 8.84766C108.455 8.84766 108.933 9.42187 108.933 10.5635V15H110.628V10.1602C110.628 8.37598 109.719 7.37109 108.051 7.37109C106.937 7.37109 106.185 7.88379 105.83 8.71777H105.713V7.52148H104.08V15ZM125.08 11.0488V9.81152H120.985V11.1924H123.357L123.35 11.3975C123.323 12.7578 122.297 13.6738 120.793 13.6738C119.037 13.6738 117.936 12.293 117.936 10.0508C117.936 7.83594 119.016 6.46191 120.739 6.46191C122.003 6.46191 122.885 7.08398 123.241 8.20508H124.998C124.683 6.18848 123.015 4.88965 120.739 4.88965C117.929 4.88965 116.131 6.90625 116.131 10.0645C116.131 13.2637 117.909 15.2461 120.766 15.2461C123.398 15.2461 125.08 13.6123 125.08 11.0488ZM126.973 15H128.662V7.52148H126.973V15ZM127.814 6.30469C128.436 6.30469 128.86 5.9082 128.86 5.36816C128.86 4.82812 128.436 4.43164 127.814 4.43164C127.199 4.43164 126.768 4.82812 126.768 5.36816C126.768 5.9082 127.199 6.30469 127.814 6.30469ZM131.307 5.68945V7.56934H130.125V8.92285H131.307V13.0039C131.307 14.4531 131.991 15.0342 133.707 15.0342C134.035 15.0342 134.349 15 134.595 14.9521V13.626C134.39 13.6465 134.26 13.6602 134.021 13.6602C133.31 13.6602 132.996 13.332 132.996 12.5937V8.92285H134.595V7.56934H132.996V5.68945H131.307ZM136.359 15H138.054V10.6592C138.054 9.58594 138.676 8.86133 139.791 8.86133C140.775 8.86133 141.294 9.44238 141.294 10.5771V15H142.99V10.1738C142.99 8.39648 142.019 7.38477 140.419 7.38477C139.305 7.38477 138.505 7.89062 138.15 8.73144H138.027V4.62988H136.359V15ZM151.507 7.52148H149.812V11.876C149.812 12.9834 149.21 13.6602 148.11 13.6602C147.098 13.6602 146.626 13.0996 146.626 11.958V7.52148H144.931V12.3818C144.931 14.1318 145.888 15.1504 147.522 15.1504C148.664 15.1504 149.395 14.665 149.757 13.8105H149.874V15H151.507V7.52148ZM157.742 15.123C159.628 15.123 160.811 13.6396 160.811 11.2607C160.811 8.86816 159.635 7.39844 157.742 7.39844C156.716 7.39844 155.855 7.89746 155.465 8.71094H155.349V4.62988H153.654V15H155.288V13.8174H155.404C155.828 14.6377 156.696 15.123 157.742 15.123ZM157.209 8.84082C158.364 8.84082 159.068 9.75684 159.068 11.2607C159.068 12.7646 158.371 13.6807 157.209 13.6807C156.046 13.6807 155.322 12.751 155.322 11.2607C155.322 9.77051 156.053 8.84082 157.209 8.84082Z" fill="white"/>
</g>
<defs>
<clipPath id="clip0">
<rect width="162.163" height="21" fill="white"/>
</clipPath>
</defs>
</svg>
